<svg id="Layer_1" data-name="Layer 1" xmlns="http://www.w3.org/2000/svg" viewBox="0 0 54.28 95.9"><defs><style>.cls-1{fill:#ffe41d;}.cls-2{fill:#fff;}</style></defs><title>tiger</title><path class="cls-1" d="M72.13,138.92,69.45,137c1.13.24,1.88.64,2.49.48,1.57-.41,1.45-2,1.46-3.1,0-1.41-.46-2.82-.43-4.35.6,1.59,1.64,3.18,1.67,4.78S74.27,138.21,72.13,138.92Z" transform="translate(-43.41 -57.15)"/><path class="cls-1" d="M70.66,131.27a20.11,20.11,0,0,1,1.11,2.1,1.4,1.4,0,0,1-1.52,2c-1-.09-5.45-2.91-6-3.77,1.74.85,3.49,1.73,5.27,2.54a5,5,0,0,0,1.36.18,6.07,6.07,0,0,0,0-1.28,17.23,17.23,0,0,0-.54-1.78Z" transform="translate(-43.41 -57.15)"/><path class="cls-2" d="M84.67,137.5c1.43,0,2.86.8,4.3-.19.34-.23,1.07,0,1.57.18a1.32,1.32,0,0,0,1.88-1.34c0-1,0-2.07,0-3.1,0-.17-.21-.33-.23-.36,2-1.19,3.07-3.15,4.51-5.12L95,127.39c.48-.94,2.4-1.23,1.46-2.77-.24-.4-.84-.58-1.23-.83l-1.08-5.93-1,1.45a12.57,12.57,0,0,0-.09-2.87c-.05-.21-1.13-.18-1.75-.25v6.12l-.18.07a15.83,15.83,0,0,1-.62-1.75c-.88-3.73-1.44-3.72-4.39-2l1.17,6-.44.33c-.66-4.52-4.7-5.45-7.8-8a34.55,34.55,0,0,1,3.8,1.41c1.29.66,2.25.32,3.59-.84l-4.6-2.13L82,115c1.78.59,3.54,1.24,5.34,1.73a3,3,0,0,0,1.62-.36,19.1,19.1,0,0,0,1.74-.89l-7.77-4.2L83,111l11,3.68c.72-1.13.59-1.65-.86-1.77a6.39,6.39,0,0,1-4.52-2.61c-.69-.83-1.64-1.45-2.44-2.27,2.74,1.43,5.13,3.89,8.64,3.22.43-1.93-.11-2.9-2.21-3.46-1.15-.31-2.37-.4-3.53-.7a3.68,3.68,0,0,1-1.63-1h6c-1-2.62-2.64-4-5.68-4.47l0-.38,3.66.39c.46-1.4-.76-1.77-2-2.47l1.74.08c.59-2.32.59-2.32-2.49-4.21h2.72c.25-.87.25-.87-2.41-2.48l2.67-.37a24.94,24.94,0,0,0-1.32-2.77c-.51-.8-1.24-1.44-1.83-2.19-.89-1.13-1.77-2.16-3.45-1.39a1.74,1.74,0,0,1-1.19,0,3.45,3.45,0,0,0-3.7.89,4,4,0,0,1-1.94.71,7.54,7.54,0,0,0-4.92,2.25,3.5,3.5,0,0,1,3-2.69,5.71,5.71,0,0,0,3.88-2c.79-1,1.83-.71,2.89-.34s2.16.58,3.57,1C86,83.91,85.51,83,83.88,82.74a43.8,43.8,0,0,1-6.59-1.65c1.07,0,2.14-.12,3.21-.12s2.18.09,3.43.14c-.38-1.3-.86-1.9-2.23-1.78A29.85,29.85,0,0,1,78,78.92c-1.44-.06-2.9,0-4.16.08.34-.73,1-1.13,2.7-1.32,1.16-.13,2.33-.19,3.73-.3-1.53-1.46-3.09-1.22-4.88-.81l.57-.91c-1.91-1.19-3.31,1.09-5.24.67l1.49-1c-1.68-.28-2.9-.09-3.72,1.38a6.9,6.9,0,0,1-2,2.19l1.09-3.33c-1.91,0-3.61-.08-5.3.05-.59,0-1.14.65-1.74,1l.23-1.51-2.87-.42c-.12-1.55-2.35-3.54-3.69-3.18a11.65,11.65,0,0,0,.7-3c-.05-1.71-2-.36-2.66-1.45.72-.19,1.43-.34,2.09-.58a2,2,0,0,0,1-.68c1-1.72,1-1.78-1.17-2.81A4.63,4.63,0,0,1,55.89,63c1.54.66,2.48-.49,3.44-1.18.42-.3.24-1.45.34-2.33l1.51,1.71c1-.47,3.08.46,3-2.22.38,2.37,2.22,1.89,3.63,2.08.29,0,.68-.65,1-1,.1,2.08,2.12,1.73,3.52,2.48L73,61.31c.1.13.27.25.26.35-.12,1.71,1.34,1.89,2.38,2.42.23.11.74-.16,1-.38a11.23,11.23,0,0,0,1.09-1.19,6.7,6.7,0,0,0-.51,1.55,1.48,1.48,0,0,0,.38,1.19,36.19,36.19,0,0,0,3.73,2.25c.38.2.94,0,1.42,0a5.07,5.07,0,0,0,2.06,1.06c.33.07.78-.33,1.36-.61.9.51,1.91.14,2.75-1.45.46-.87,1.46-1.91.38-2.55,0-.9.27-1.66,0-2.1s-1.08-.22-1.65-.31v4.6a5.48,5.48,0,0,1-5.52-.74l-1,1.08c-.6-2.47-.66-2.52-1.68-1.86l-1.75-2.14c-.91.19-1.71-1.86-2.64.08A3.38,3.38,0,0,0,72,60c-.29,0-.63.35-.91.53a8.11,8.11,0,0,0-1.52-1.35,10.17,10.17,0,0,0-2.22-.67l-.52,1.79c-.59-2.75-2.51-2.34-4.38-2.3v2.15c-1.53-2.38-3.34-2.12-4.9-1-.56.41-.4,1.81-.56,2.7l-1.5-1.94-3.67,4.15,2.19,1c-.74.79-2.37-.45-2.66,1.14-.19,1.06-.22,2.15-.33,3.24h2.17c-.53.63-1.54,1.35-1.42,1.75a16.23,16.23,0,0,0,1.75,3.27l1.91-1c-1.08,2.13.29,2.81,1.65,3.42,1.54.7,3.12,1.31,4.55,1.91a13.6,13.6,0,0,0-.54,2,25.61,25.61,0,0,0,1.35,12.27c.43,1.15.35,2-.69,2.63l.15-3.36-1.5,1,.69-3-.48-.16-.78.57a34,34,0,0,0,.33-3.67c0-.35-.65-1-1-1A1.66,1.66,0,0,0,58,87a5.91,5.91,0,0,0,.19,2.28,11.1,11.1,0,0,0,.8,1.77l-2-1.21a3.36,3.36,0,0,0,2.26,3.75l-1.7.17c-.4,1.41.36,1.93,1.63,2.19a2,2,0,0,0-1.69,2.46c.1,1.33.95,1.83,2.09,2.27l-3-.29c.49.52.71,1,1,1,1.15.29,2.32.45,3.8.72.05-.15.49-.72.37-1.12-.47-1.52-.89-3.22-3.13-3.14l2.12-.48-.2-4.13,1.17,5L63.07,97a9.89,9.89,0,0,0-.71,3,10.1,10.1,0,0,0,1.31,2.79l1.2-2.39c.06,1.81-.53,4,2.13,4.47.86.14,1.85-.47,2.78-.73l.07-.78-3.58-1.92,3.52.3c-.57-1.47-1.11-2.33-2.54-2.53A3.92,3.92,0,0,1,65,97.72l2.12.62.41-.56-2.81-3.2,1.36-.19a7.23,7.23,0,0,0-1-2.53c-.54-.58-1.55-.72-2.61-1.16l1.91-.26-.27-.29a13.55,13.55,0,0,1,2.3-2.71c1.85-1.29,3.89-2.31,5.68-3.34a8.65,8.65,0,0,1-3.75,3.62,7.49,7.49,0,0,0-1,.62c-1.66,1.15-1.93,2-1.33,3.92.16.52.3,1,.45,1.58,2.49-1.27,3.89-3.46,5.17-5.76a23.88,23.88,0,0,1-1.2,3.58,15.13,15.13,0,0,1-2.18,2.94c-.74.85-1.46,1.6-.22,2.7l2.75-2,.22.08c-.46.74-.88,1.51-1.38,2.22a1.59,1.59,0,0,0,.06,2.14c.63.89,1.2.41,1.81.16a15.51,15.51,0,0,1,9.84-.78c1.5.36,3.15.06,5.14.06-3.15,1.06-5.8,2.32-8.9,1.55a5.8,5.8,0,0,0-5.6,1.37,6.7,6.7,0,0,0-.84,1.37l.3.3a25.8,25.8,0,0,1,2.78-.81,18.92,18.92,0,0,1,4.15-.46,30.85,30.85,0,0,1,5.41.9l-2.77.19a21.85,21.85,0,0,0-4.23.3,33.58,33.58,0,0,0-5.3,2.06c-.44.2-.67.89-.89,1.21,1.68.18,3.18.42,4.68.47a7,7,0,0,0,2.4-.46c.82-.28,1.57-.74,2.41-1a6.17,6.17,0,0,1-4.58,2.31,25.29,25.29,0,0,0-4,.51c-1.79.48-2,1.2-1.55,3.09,0,.19-.12.43-.2.7h6.31v.29c-2.31.35-4.63.67-6.93,1.1-.51.1-1,.63-1.42,1l.22.56h5.49l0,.29c-1.88.48-3.79.89-5.63,1.48-.42.13-.65.85-1,1.39,2.94,1.25,5.55-1.25,8-.09l-6,1.81c3.33,2.34,6.88,3.32,10.54,2l3.5,3.33-3.3-1.26-1.68,3.69a31.6,31.6,0,0,0,.55-3.35c.07-1.32-.48-1.69-1.75-1.38-1,.26-2.06.73-3.11-.25a1.12,1.12,0,0,0-1.89.17c-.08.16-1.37-.35-2.41-.63,1.55,1.69,1.49,2-.13,2.58-.09-1.75-.92-2.1-3.15-1.33.54,2,.53,2-.73,2.45.58-1.24.37-1.73-1-2.08a3.92,3.92,0,0,0-3.85,1.1c-1.46,1.34-3,2.59-4.49,3.88l-.37-.44c.46-.32.95-.6,1.38-1a17.73,17.73,0,0,0,2.53-2.27,5.34,5.34,0,0,1,4.38-2.2,1.82,1.82,0,0,0,1.37-1,38.85,38.85,0,0,0,1.16-4.64c.41-2,.9-3.91,2.47-5.35a1.24,1.24,0,0,0,.35-.63c.41-2.35.8-4.7,1.19-7.06a4.84,4.84,0,0,0,0-.77l-4.88,3a1.84,1.84,0,0,0-2.66-.11c-.33.24-1.23-.14-1.78-.41a2.28,2.28,0,0,0-3,.84c-1.37-2-2.21-3-3.6-1.21-.21-.81-.48-1.57-.6-2.35a2.72,2.72,0,0,1,1.41-2.75c.62-.44,1.37-1.17,1.42-1.82a53.46,53.46,0,0,0,0-5.8,38.6,38.6,0,0,1-.2-5.36c.25-2.33,1.19-2.94,3.47-2.92L60.8,79c-.89-.31-1.89-.6-2.85-1-3.5-1.43-6.25-3.65-7.33-7.42-1.21-4.19,1-9.13,5.12-11.51a15.33,15.33,0,0,1,11.78-1.33,38.27,38.27,0,0,1,12.09,5.19,31.43,31.43,0,0,0,4.75,2.55c1.41.62,2.28.06,2.25-1.49a6.49,6.49,0,0,0-.86-2.78c-.88-1.66-.89-2.78.17-3.46a2.51,2.51,0,0,1,3.56,1.19,12.72,12.72,0,0,1,1.45,4.65,5.54,5.54,0,0,1-7.38,5.8A19.4,19.4,0,0,1,78.76,67c-3.65-2.33-7.27-4.65-11.67-5.3A11.37,11.37,0,0,0,59,63.09a5.7,5.7,0,0,0-3,5.5,5.89,5.89,0,0,0,3.76,5.18,14.5,14.5,0,0,0,6.94.83,54.89,54.89,0,0,1,9-.13,12.87,12.87,0,0,1,9.86,6.59,53.17,53.17,0,0,0,4.67,6.4,9.55,9.55,0,0,1,2.45,6.88A15.07,15.07,0,0,1,92.55,96,14.05,14.05,0,0,0,94.49,106c2,3.26,1.71,6-.19,9.45a12.38,12.38,0,0,1,.92,3.09,8.4,8.4,0,0,0,1.58,4.9c1.35,1.88,1.06,3.8-.21,5.58-.75,1.06-1.79,1.92-2.48,3a10.72,10.72,0,0,0-1.24,3.12A1.55,1.55,0,0,0,94,137.24c1.34.51,1.75,2.54,1,3.92-.33.61-.7,1.2-1,1.68-.74-.35-1.47-1-2.21-1s-1.39.64-2.2,1a5.43,5.43,0,0,0-2.08-.64,7.49,7.49,0,0,0-2.35,1.12L84.42,142l-2.16.17L82,143.18l-.4,0a21.87,21.87,0,0,1-.19-3.12C81.56,138.16,82.08,137.81,84.67,137.5ZM58.82,106c1.51.35,1.31-.71,1.41-1.66.2-2-.49-2.65-2.5-2.34a2,2,0,0,1-.84,0c-1.5-.46-2-.21-2.36,1.39,1.77-.41.45,1.32,1.36,1.8l.49-1.25.62,1.54.9-1.59h.45Zm27.07,36a1.88,1.88,0,0,0,1.24-2.8c-.4-1-1-1.56-2.23-1-.27.13-.69-.11-1-.06a3.23,3.23,0,0,0-1.31.4c-.15.1,0,.62,0,.95s.1.85.18,1.26.17.59.25.88a3.22,3.22,0,0,0,.87-.34c.6-.52,1.16-1.09,2-1.92Zm3,0,.82-2.32,1.17,1.27a1.65,1.65,0,0,0-.12-2.41,3.24,3.24,0,0,0-2.27-.52c-1.24.16-.65,1.17-.6,1.9,0,.3,0,.6,0,.9v1.07ZM62.3,104l.69,0,.51,2.31c.78-2,.55-2.58-1.39-4.14-1.2,1.13-1.69,2.1-1.32,3.1A7.29,7.29,0,0,0,62,106.87Zm30.62,37.68a17.83,17.83,0,0,1,.47-2.34c0-.1.82,0,1.32.09-.09-.27-.11-.82-.36-1a4,4,0,0,0-2-.7c-1,.07-.61.87-.46,1.49a1.89,1.89,0,0,1,0,1C91.46,141.49,92.16,141.64,92.92,141.68Z" transform="translate(-43.41 -57.15)"/><path class="cls-2" d="M76.38,138.1c-1.31,2.46-2.33,3-4.9,2.45-3.14-.64-5.29.39-6.66,3.17-1.24,2.52-3.07,3.15-5.95,1.77-1.28,1.62-2.64,3.29-3.93,5a4.06,4.06,0,0,1-3.35,2c-.35,0-.71.34-1.19.59l-.71-1.54c-.87.74-2.49-.62-3,1.25-1.24-.37,0-3.68-2.76-2.2v-3.63h-.52c2-3.36,2.34-3.91,5.61-3.64a4.73,4.73,0,0,0,3.2-1.22c1.69-1.54,3.11-3.37,4.84-5.29a28.85,28.85,0,0,1-2.61-2.94,8.5,8.5,0,0,1-.69-2.47h4.53l-2.55,1.9-1.11-.75c-.09,1.94,4.65,3,9.16,2l-2-2.62c-.08,0,.13-.05.3,0,2,.65,3.95,4.51,3.28,6.52l-.42,1.28c-1.17,3.41-2.44,4.08-5.9,3.1a2,2,0,0,0,1,2.66c1,.55,3.24-.06,3.7-1a12.48,12.48,0,0,1,3.71-4.62c.59-.44.64-1.8.64-2.74,0-.74-.45-1.48-.41-2.39.42.73.85,1.44,1.24,2.18.76,1.43,1.46,2.84,3.34,3.14,1.32.21,2.36.06,3.12-1.15.22-.34.68-.52,1-.78Zm-18.11-.63h1.38a4.87,4.87,0,0,0-.32-1,6.39,6.39,0,0,0-.79-.86,7.3,7.3,0,0,0-.5,1.06,2,2,0,0,0,.11.74c-1.57-.63-1.14.3-1,.73-.77.71-1.36,1.33-2,1.86-1.21.95-.1,1.64.33,2.32-.86.52-1.79-1.33-2.19,0A2,2,0,0,0,55,144.79s.07.08.1.12a4.9,4.9,0,0,1-2.13-.8c-.34-.2-.65-.64-1-.63a46.56,46.56,0,0,0-5.28.41c-.45.06-.93.71-1.18,1.2a7.67,7.67,0,0,0-.42,1.82l.17,0-.18,2.72,1.23-2.25.26.15-.2.8c1.32-.12,1.87-.11.85,2.7l2,.14.39-2.32,2.08.21-.44,2.42c1.51.33,2.31-.28,3.35-2a12.58,12.58,0,0,1,2.69-3.08c1.69-1.35,1.82-2.93.14-4.42-.38-.33-.71-.72-1.26-1.28l1.62.46.14-1.79.3-.06.7,1.25,1.21-1.79c-.14-.18-.2-.34-.32-.42C59.29,138.11,58.78,137.79,58.27,137.47Zm2.92,1.28c-1.73,1.12-1.94,2-.54,2.76l.46-1.41.85.81A14.29,14.29,0,0,0,63,139a9.2,9.2,0,0,0,.59-2.46c0-.31-.6-1-.85-.92a1.93,1.93,0,0,0-1.38.82A8.41,8.41,0,0,0,61.19,138.75Zm1.42,3,.48.08c1.71-1.93,2.3-5.51.88-6,.29,1.49.32,2.85-1,4C62.61,140.14,62.73,141.08,62.61,141.75Z" transform="translate(-43.41 -57.15)"/><path class="cls-2" d="M77,129.38c-.11.38-.39.8-.31,1.13.37,1.39.84,2.76,1.28,4.18,2.19.17,2.93-1.39,3.67-3.22.85-2.11.09-3.65-1.29-5.16A5,5,0,0,1,83,130.15c.13,1.22-.08,2.48,0,3.72,0,.42.37,1.11.65,1.15.44.06,1.32-.25,1.37-.52a35.08,35.08,0,0,0,.54-4.8,17.68,17.68,0,0,0-.36-2,10.27,10.27,0,0,1,2.11,7.11,3.5,3.5,0,0,0,2.94-4,32.27,32.27,0,0,0-1.7-5.18L92,130.17c1.94-2,0-3.87-.66-5.91l2.33,2.15.39-.07-1-3.6a4.32,4.32,0,0,1,.8,5.3,6,6,0,0,0-.24,1.67L90,133.82l1.26.34L85,136.93c-.07-.28-.07-.75-.22-.8a31.65,31.65,0,0,0-4-1.23c-1.78-.38-3,.45-3.65,2.18a4.93,4.93,0,0,1-.71,1l0,0c.65-2.79,1-5.57-.68-8.26Z" transform="translate(-43.41 -57.15)"/><path class="cls-2" d="M78.53,125.54c-1,1.27-1.9,2.56-2.93,3.77a1.15,1.15,0,0,1-1.06-.11c-.3-.49-.72-1.32-.51-1.65a13.67,13.67,0,0,1,2.59-3.12C77.5,123.67,78.19,124.14,78.53,125.54Z" transform="translate(-43.41 -57.15)"/><path class="cls-2" d="M61.33,128.91c2.1-2,3-2.12,5.25-.6C64.43,129.9,64.43,129.9,61.33,128.91Z" transform="translate(-43.41 -57.15)"/><path class="cls-1" d="M66.53,131A2.68,2.68,0,0,0,69,128l2.3-1.41c-.06-.09,0,0,0,0-1,1.48-1.93,3-3,4.41-.26.34-1.06.26-1.61.37Z" transform="translate(-43.41 -57.15)"/><path class="cls-1" d="M88,89.83c-.7-.11-1.41-.19-2.1-.34a4.19,4.19,0,0,0-4,.93,3.93,3.93,0,0,1-2.44.93A6.41,6.41,0,0,0,73.91,94a1.67,1.67,0,0,1-1.07.62c.55-1,1.06-2,1.66-2.92A3.61,3.61,0,0,1,77.93,90a7.09,7.09,0,0,0,4.41-1.13C84.41,87.5,86.22,88.88,88,89.83Z" transform="translate(-43.41 -57.15)"/><path class="cls-1" d="M85.24,92.28c-.93.65-1.83,1.34-2.79,2a2.67,2.67,0,0,1-1.51.55,8.57,8.57,0,0,0-6.48,1.54c1.33-2.54,2.91-3.26,5.4-2.92A8,8,0,0,0,82.72,93a25.07,25.07,0,0,0,2.47-.88Z" transform="translate(-43.41 -57.15)"/><path class="cls-1" d="M71.22,78a4.54,4.54,0,0,0-1,1.12c-.9,2.38-2.23,4.25-4.78,5.16-.66.24-1,1.26-1.5,1.87a3.29,3.29,0,0,1,2.1-3.5,5.85,5.85,0,0,0,3.21-3.14,7.28,7.28,0,0,1,1.63-1.81Z" transform="translate(-43.41 -57.15)"/><path class="cls-1" d="M83.92,113.56c-1.23-.25-2.47-.45-3.69-.76-2-.51-4.06-1.11-6.06-1.66,1-.1,2.25-.56,3.34-.29A67.64,67.64,0,0,1,84,113.17Z" transform="translate(-43.41 -57.15)"/><path class="cls-1" d="M61.88,84.74c.85-2.52.86-5.33,2.4-7.85C65.29,80.18,63.19,82.34,61.88,84.74Z" transform="translate(-43.41 -57.15)"/><path class="cls-1" d="M85.94,111a15.33,15.33,0,0,0-3.59-1.42,18.68,18.68,0,0,0-4.2.36C81.11,107.75,84.39,108.27,85.94,111Z" transform="translate(-43.41 -57.15)"/><path class="cls-1" d="M82.19,97.32c3.3-2.58,3.36-2.57,6.87.12a17.63,17.63,0,0,0-3.39-.7A19.16,19.16,0,0,0,82.19,97.32Z" transform="translate(-43.41 -57.15)"/></svg>